<svg width="18" height="18" viewBox="0 0 18 18" fill="none" xmlns="http://www.w3.org/2000/svg">
<path d="M2 18C1.45 18 0.979167 17.8321 0.5875 17.4964C0.195833 17.1607 0 16.7571 0 16.2857V6C0 5.52857 0.195833 5.125 0.5875 4.78929C0.979167 4.45357 1.45 4.28571 2 4.28571H4C4 3.1 4.4875 2.08929 5.4625 1.25357C6.4375 0.417857 7.61667 0 9 0C10.3833 0 11.5625 0.417857 12.5375 1.25357C13.5125 2.08929 14 3.1 14 4.28571H16C16.55 4.28571 17.0208 4.45357 17.4125 4.78929C17.8042 5.125 18 5.52857 18 6V16.2857C18 16.7571 17.8042 17.1607 17.4125 17.4964C17.0208 17.8321 16.55 18 16 18H2ZM2 16.2857H16V6H2V16.2857ZM12.5375 9.88929C13.5125 9.05357 14 8.04286 14 6.85714H12C12 7.57143 11.7083 8.17857 11.125 8.67857C10.5417 9.17857 9.83333 9.42857 9 9.42857C8.16667 9.42857 7.45833 9.17857 6.875 8.67857C6.29167 8.17857 6 7.57143 6 6.85714H4C4 8.04286 4.4875 9.05357 5.4625 9.88929C6.4375 10.725 7.61667 11.1429 9 11.1429C10.3833 11.1429 11.5625 10.725 12.5375 9.88929ZM6 4.28571H12C12 3.57143 11.7083 2.96429 11.125 2.46429C10.5417 1.96429 9.83333 1.71429 9 1.71429C8.16667 1.71429 7.45833 1.96429 6.875 2.46429C6.29167 2.96429 6 3.57143 6 4.28571Z" fill="#FAFAFA"/>
</svg>
