<svg width="19" height="19" viewBox="0 0 19 19" fill="none" xmlns="http://www.w3.org/2000/svg">
<path d="M9.5 0.5C10.6935 0.5 11.8381 0.974106 12.682 1.81802C13.5259 2.66193 14 3.80653 14 5C14 6.19347 13.5259 7.33807 12.682 8.18198C11.8381 9.02589 10.6935 9.5 9.5 9.5C8.30653 9.5 7.16193 9.02589 6.31802 8.18198C5.47411 7.33807 5 6.19347 5 5C5 3.80653 5.47411 2.66193 6.31802 1.81802C7.16193 0.974106 8.30653 0.5 9.5 0.5ZM9.5 11.75C14.4725 11.75 18.5 13.7637 18.5 16.25V18.5H0.5V16.25C0.5 13.7637 4.5275 11.75 9.5 11.75Z" fill="#FAFAFA" stroke="#FAFAFA"/>
</svg>
